<svg xmlns="http://www.w3.org/2000/svg" fill="none" viewBox="0 0 128 128" id="Wifi-Router--Streamline-Core" height="128" width="128">
  <desc>
    Wifi Router Streamline Icon: https://streamlinehq.com
  </desc>
  <g id="wifi-router--wireless-wifi-internet-server-network-connection">
    <path id="Subtract" fill="#2859c5" fill-rule="evenodd" d="M22.189714285714285 114.28571428571428v6.528a6.857142857142857 6.857142857142857 0 0 0 13.714285714285714 0V114.28571428571428h-13.714285714285714Zm69.90628571428572 0v6.528a6.857142857142857 6.857142857142857 0 1 0 13.714285714285714 0V114.28571428571428h-13.714285714285714Z" clip-rule="evenodd" stroke-width="9.1429"></path>
    <path id="Union" fill="#8fbffa" fill-rule="evenodd" d="M12.050285714285714 29.951999999999998a6.857142857142857 6.857142857142857 0 0 1 8.420571428571428 4.8182857142857145L32.18285714285714 77.71428571428571h63.63428571428571l11.702857142857143 -42.943999999999996a6.857142857142857 6.857142857142857 0 0 1 13.238857142857142 3.6022857142857143L110.02514285714285 77.71428571428571h4.260571428571429a9.142857142857142 9.142857142857142 0 0 1 9.142857142857142 9.142857142857142v18.285714285714285a9.142857142857142 9.142857142857142 0 0 1 -9.142857142857142 9.142857142857142h-100.57142857142857a9.142857142857142 9.142857142857142 0 0 1 -9.142857142857142 -9.142857142857142v-18.285714285714285a9.142857142857142 9.142857142857142 0 0 1 9.142857142857142 -9.142857142857142h4.260571428571429L7.241142857142857 38.372571428571426a6.857142857142857 6.857142857142857 0 0 1 4.809142857142857 -8.411428571428571Z" clip-rule="evenodd" stroke-width="9.1429"></path>
    <path id="Union_2" fill="#2859c5" fill-rule="evenodd" d="M29.046857142857142 90.02971428571428a4.571428571428571 4.571428571428571 0 1 0 0 9.142857142857142h4.370285714285714a4.571428571428571 4.571428571428571 0 1 0 0 -9.142857142857142h-4.370285714285714Zm21.85142857142857 0a4.571428571428571 4.571428571428571 0 1 0 0 9.142857142857142h4.361142857142856a4.571428571428571 4.571428571428571 0 1 0 0 -9.142857142857142h-4.370285714285714Z" clip-rule="evenodd" stroke-width="9.1429"></path>
    <path id="Union_3" fill="#2859c5" fill-rule="evenodd" d="M89.29828571428571 25.170285714285715a35.858285714285714 35.858285714285714 0 0 0 -50.59657142857142 0 6.857142857142857 6.857142857142857 0 0 1 -9.691428571428572 -9.691428571428572 49.57257142857142 49.57257142857142 0 0 1 69.98857142857143 0 6.857142857142857 6.857142857142857 0 1 1 -9.700571428571427 9.691428571428572ZM70.39999999999999 50.431999999999995a6.857142857142857 6.857142857142857 0 1 1 -13.714285714285714 0 6.857142857142857 6.857142857142857 0 0 1 13.714285714285714 0ZM54.473142857142854 38.564571428571426c4.827428571428571 -4.8182857142857145 13.348571428571427 -4.8182857142857145 18.166857142857143 0a6.857142857142857 6.857142857142857 0 1 0 9.700571428571427 -9.691428571428572c-10.176 -10.185142857142857 -27.38285714285714 -10.185142857142857 -37.568 0a6.857142857142857 6.857142857142857 0 0 0 9.700571428571427 9.691428571428572Z" clip-rule="evenodd" stroke-width="9.1429"></path>
  </g>
</svg>