<?xml version="1.0" encoding="UTF-8"?>
<svg height="128px" viewBox="0 0 128 128" width="128px" xmlns="http://www.w3.org/2000/svg">
    <path d="m 32.496094 12.496094 h 63.007812 c 11.046875 0 20 8.953125 20 20 v 63.007812 c 0 11.046875 -8.953125 20 -20 20 h -63.007812 c -11.046875 0 -20 -8.953125 -20 -20 v -63.007812 c 0 -11.046875 8.953125 -20 20 -20 z m 0 0" fill="#caffd0"/>
    <path d="m 29.171875 61.800781 h 70.960937 c 6.554688 0 11.875 5.320313 11.875 11.875 v 11.570313 c 0 6.558594 -5.320312 11.875 -11.875 11.875 h -70.960937 c -6.558594 0 -11.875 -5.316406 -11.875 -11.875 v -11.570313 c 0 -6.554687 5.316406 -11.875 11.875 -11.875 z m 0 0" fill="#5c9ead"/>
    <g fill="none" stroke="#3d3846" stroke-linecap="round" stroke-linejoin="round" stroke-width="5.472956">
        <path d="m 64.6523453151 53.85547041761 h 0.02734288818"/>
        <path d="m 56.91406441475 46.11718951726 c 4.27343728757 -4.27343728757 11.20312451313 -4.27343728757 15.4765618007 0"/>
        <path d="m 49.17187582381 38.37500092633 c 8.54687457514 -8.55077952924 22.41015671685 -8.55077952924 30.96093898257 0"/>
    </g>
    <path d="m 19.789062 92.429688 c 0.492188 0.304687 0.855469 0.890624 1.269532 1.328124 c 3.179687 3.34375 6.046875 3.117188 10.261718 3.109376 h 66.894532 c 5.523437 0 7.289062 -0.074219 11.164062 -4.4375 c 1.058594 4.707031 -3.519531 10.371093 -8.367187 10.945312 c -1.183594 0.140625 -2.699219 0.121094 -3.894531 0.125 h -62.449219 c -1.875 0 -3.832031 0.050781 -5.703125 -0.046875 c -5.816406 -0.308594 -9.484375 -5.460937 -9.175782 -11.023437 z m 0 0" fill="#3d3846"/>
    <path d="m 49.171875 83.445312 l 21.714844 0.003907 c 2.859375 0 6.445312 0.101562 9.246093 -0.003907 c -1.011718 3.3125 -3.078124 6.472657 -5.929687 8.480469 c -6.699219 3.921875 -12.136719 3.871094 -18.886719 0 c -3.09375 -2.773437 -4.902344 -4.257812 -6.144531 -8.480469 z m 0 0" fill="#90282f"/>
    <path d="m 55.207031 91.925781 c 5.164063 -4.230469 13.871094 -4.914062 18.886719 0 c -6.699219 3.921875 -12.136719 3.871094 -18.886719 0 z m 0 0" fill="#e65f5a"/>
    <path d="m 47.652344 75.816406 c 0 3.929688 -3.1875 7.121094 -7.121094 7.121094 s -7.121094 -3.191406 -7.121094 -7.121094 c 0 -3.933594 3.1875 -7.121094 7.121094 -7.121094 s 7.121094 3.1875 7.121094 7.121094 z m 0 0" fill="#1a1a1a"/>
    <path d="m 41.195312 73.820312 c 0 1.574219 -1.273437 2.847657 -2.847656 2.847657 c -1.574218 0 -2.847656 -1.273438 -2.847656 -2.847657 c 0 -1.574218 1.273438 -2.847656 2.847656 -2.847656 c 1.574219 0 2.847656 1.273438 2.847656 2.847656 z m 0 0" fill="#ffffff"/>
    <path d="m 95.894531 75.816406 c 0 3.929688 -3.1875 7.121094 -7.121093 7.121094 c -3.933594 0 -7.121094 -3.191406 -7.121094 -7.121094 c 0 -3.933594 3.1875 -7.121094 7.121094 -7.121094 c 3.933593 0 7.121093 3.1875 7.121093 7.121094 z m 0 0" fill="#1a1a1a"/>
    <path d="m 89.4375 73.820312 c 0 1.574219 -1.277344 2.847657 -2.847656 2.847657 c -1.574219 0 -2.847656 -1.273438 -2.847656 -2.847657 c 0 -1.574218 1.273437 -2.847656 2.847656 -2.847656 c 1.570312 0 2.847656 1.273438 2.847656 2.847656 z m 0 0" fill="#ffffff"/>
    <path d="m 34.671875 42.972656 v 7.675782 c -0.777344 0.507812 -1.261719 1.476562 -1.261719 2.53125 v 8.902343 h 8.582032 v -8.902343 c 0 -1.054688 -0.484376 -2.023438 -1.261719 -2.53125 v -7.675782 z m 0 0" fill="#3d3846"/>
    <path d="m 37.113281 21.667969 h 1.175781 c 1.347657 0 2.441407 1.332031 2.441407 2.976562 v 18.328125 h -6.058594 v -18.328125 c 0 -1.644531 1.09375 -2.976562 2.441406 -2.976562 z m 0 0" fill="#666666"/>
    <path d="m 88.574219 46.101562 v 6.484376 c -0.777344 0.429687 -1.261719 1.25 -1.261719 2.140624 v 7.519532 h 8.582031 v -7.519532 c 0 -0.890624 -0.484375 -1.710937 -1.261719 -2.140624 v -6.484376 z m 0 0" fill="#3d3846"/>
    <path d="m 91.015625 21.503906 h 1.171875 c 1.351562 0 2.445312 1.539063 2.445312 3.433594 v 21.164062 h -6.058593 v -21.164062 c 0 -1.894531 1.09375 -3.433594 2.441406 -3.433594 z m 0 0" fill="#666666"/>
</svg>
